STARTFONT 2.1
FONT HAN-GB2312
SIZE 10 72 72
FONTBOUNDINGBOX 5 10 0 0
STARTPROPERTIES 1
BITCOUNT 8
ENDPROPERTIES
CHARS 27
STARTCHAR  00A4
ENCODING  164
SWIDTH  1000 0
DWIDTH  7 0
BBX  7 7 0 0
BITMAP
00000000000000
00A0C0E0C0A000
00E0600060E000
00F0100010F000
00E0600060E000
00A0C0E0C0A000
00000000000000
ENDCHAR
STARTCHAR  00A7
ENCODING  167
SWIDTH  1000 0
DWIDTH  5 0
BBX  3 7 1 0
BITMAP
A0E0A0
F020C0
C0F0A0
FF30F0
80F0E0
E010F0
80E0A0
ENDCHAR
STARTCHAR  00A8
ENCODING  168
SWIDTH  1000 0
DWIDTH  3 0
BBX  3 1 0 6
BITMAP
8040A0
ENDCHAR
STARTCHAR  00B0
ENCODING  176
SWIDTH  1000 0
DWIDTH  4 0
BBX  3 3 1 4
BITMAP
A0E030
A08080
80C020
ENDCHAR
STARTCHAR  00B1
ENCODING  177
SWIDTH  1000 0
DWIDTH  5 0
BBX  5 5 0 0
BITMAP
0000FF0000
40E0FFE040
0000FF0000
0000FF0000
40E0E0E040
ENDCHAR
STARTCHAR  00B7
ENCODING  183
SWIDTH  1000 0
DWIDTH  2 0
BBX  2 1 0 3
BITMAP
6080
ENDCHAR
STARTCHAR  00E0
ENCODING  224
SWIDTH  1000 0
DWIDTH  5 0
BBX  4 7 1 0
BITMAP
40800000
00300000
A0E0A000
C010FF00
A0C0FF00
FF10FF00
C0E0FF00
ENDCHAR
STARTCHAR  00E1
ENCODING  225
SWIDTH  1000 0
DWIDTH  5 0
BBX  4 7 1 0
BITMAP
00A03000
00300000
A0E0A000
C010FF00
A0C0FF00
FF10FF00
C0E0FF00
ENDCHAR
STARTCHAR  00E8
ENCODING  232
SWIDTH  1000 0
DWIDTH  5 0
BBX  3 7 1 0
BITMAP
20A000
003000
A0E0A0
FF10FF
FFE0F0
FF00E0
A0E0A0
ENDCHAR
STARTCHAR  00E9
ENCODING  233
SWIDTH  1000 0
DWIDTH  5 0
BBX  3 7 1 0
BITMAP
00A010
003000
A0E0A0
FF10FF
FFE0F0
FF00E0
A0E0A0
ENDCHAR
STARTCHAR  00EA
ENCODING  234
SWIDTH  1000 0
DWIDTH  5 0
BBX  3 7 1 0
BITMAP
60E040
400040
A0E0A0
FF10FF
FFE0F0
FF00E0
A0E0A0
ENDCHAR
STARTCHAR  00EC
ENCODING  236
SWIDTH  1000 0
DWIDTH  3 0
BBX  2 7 0 0
BITMAP
1080
0000
00FF
00FF
00FF
00FF
00FF
ENDCHAR
STARTCHAR  00ED
ENCODING  237
SWIDTH  1000 0
DWIDTH  3 0
BBX  2 7 1 0
BITMAP
8020
0000
FF00
FF00
FF00
FF00
FF00
ENDCHAR
STARTCHAR  00F2
ENCODING  242
SWIDTH  1000 0
DWIDTH  5 0
BBX  3 7 1 0
BITMAP
308000
003000
A0E0A0
FF00FF
FF00FF
FF00FF
A0E0A0
ENDCHAR
STARTCHAR  00F3
ENCODING  243
SWIDTH  1000 0
DWIDTH  5 0
BBX  3 7 1 0
BITMAP
00A020
003000
A0E0A0
FF00FF
FF00FF
FF00FF
A0E0A0
ENDCHAR
STARTCHAR  00F7
ENCODING  247
SWIDTH  1000 0
DWIDTH  3 0
BBX  2 3 0 2
BITMAP
0000
1040
0000
ENDCHAR
STARTCHAR  00F9
ENCODING  249
SWIDTH  1000 0
DWIDTH  5 0
BBX  3 7 1 0
BITMAP
306000
000000
FF00FF
FF00FF
FF00FF
FF00FF
C0C0FF
ENDCHAR
STARTCHAR  00FA
ENCODING  250
SWIDTH  1000 0
DWIDTH  5 0
BBX  3 7 1 0
BITMAP
008020
000000
FF00FF
FF00FF
FF00FF
FF00FF
C0C0FF
ENDCHAR
STARTCHAR  00FC
ENCODING  252
SWIDTH  1000 0
DWIDTH  5 0
BBX  3 7 1 0
BITMAP
804080
000000
FF00FF
FF00FF
FF00FF
FF00FF
C0C0FF
ENDCHAR
STARTCHAR  02C7
ENCODING  711
SWIDTH  1000 0
DWIDTH  4 0
BBX  4 1 0 6
BITMAP
30A0A000
ENDCHAR
STARTCHAR  2014
ENCODING  8212
SWIDTH  1000 0
DWIDTH  8 0
BBX  8 1 0 2
BITMAP
60E0E0E0E0E0E0A0
ENDCHAR
STARTCHAR  2018
ENCODING  8216
SWIDTH  1000 0
DWIDTH  2 0
BBX  2 2 1 5
BITMAP
8000
F010
ENDCHAR
STARTCHAR  2019
ENCODING  8217
SWIDTH  1000 0
DWIDTH  2 0
BBX  2 2 0 5
BITMAP
10F0
0060
ENDCHAR
STARTCHAR  201C
ENCODING  8220
SWIDTH  1000 0
DWIDTH  4 0
BBX  3 2 1 5
BITMAP
806030
F08080
ENDCHAR
STARTCHAR  201D
ENCODING  8221
SWIDTH  1000 0
DWIDTH  3 0
BBX  4 2 -1 5
BITMAP
10F08080
00602030
ENDCHAR
STARTCHAR  2026
ENCODING  8230
SWIDTH  1000 0
DWIDTH  8 0
BBX  6 1 1 0
BITMAP
20C040A08060
ENDCHAR
STARTCHAR  2030
ENCODING  8240
SWIDTH  1000 0
DWIDTH  9 0
BBX  7 7 1 0
BITMAP
E0E00030100000
FFFF0030000000
F0F02010000000
202030A0A0A0A0
001020FFFFFFFF
003000FFFFFFFF
103000E0E0E0E0
ENDCHAR
ENDFONT
